# xmcd CD database file
#
# Track frame offsets:
#	150
#	68893
#	89108
#	110514
#	134310
#	151183
#	167812
#	195786
#	215033
#	235860
#	257001
#	282008
#
# Disc length: 3840 seconds
#
# Revision: 0
# Processed by: cddbd v1.5.1PL0 Copyright (c) Steve Scherf et al.
# Submitted via: CDex 1.51
#
DISCID=a70efe0c
DTITLE=Michael Allen Harrison - Live at the Benson
DYEAR=1998
DGENRE=Jazz
TTITLE0=Rose Garden Suite
TTITLE1=19 Moments Ago
TTITLE2=Remembrance
TTITLE3=Summertime
TTITLE4=Journey Home
TTITLE5=Dance on the Roof
TTITLE6=Eclipse
TTITLE7=Peaceful Place
TTITLE8=Pieces of a Dream
TTITLE9=Candle in the Wind
TTITLE10=Intimate Friend
TTITLE11=Audience
EXTD=YEAR: 1998
EXTT0=
EXTT1=
EXTT2=
EXTT3=
EXTT4=
EXTT5=
EXTT6=
EXTT7=
EXTT8=
EXTT9=
EXTT10=
EXTT11=
PLAYORDER=
